<?xml version="1.0" encoding="utf-8"?>
<!-- Generator: Adobe Illustrator 27.5.0, SVG Export Plug-In . SVG Version: 6.00 Build 0)  -->
<svg version="1.1" id="Layer_1" xmlns="http://www.w3.org/2000/svg" xmlns:xlink="http://www.w3.org/1999/xlink" x="0px" y="0px"
	 viewBox="0 0 5000 2916" style="enable-background:new 0 0 5000 2916;" xml:space="preserve">
<g>
	<rect style="fill-rule:evenodd;clip-rule:evenodd;fill:transparent;" width="5000" height="2916"/>
	<g>
		<defs>
			<path id="SVGID_1_" d="M4973.012,1607.85l-12.862,5.385l15.98-4.248l12.391-4.502L4973.012,1607.85z M4875.348,1641.036
				c-4.502,2.148-9.008,4.286-13.504,6.444c5.516-1.749,11.024-3.51,16.537-5.254l12.889-5.459L4875.348,1641.036z
				 M4921.019,1619.24l-20.75,9.905c8.256-2.202,16.523-4.386,24.779-6.582c7.027-2.954,14.074-5.893,21.111-8.837L4921.019,1619.24
				z M4780.729,1678.566l-13.532,7.391l16.028-5.958c4.561-2.216,9.139-4.416,13.717-6.623L4780.729,1678.566z M4824.813,1654.588
				c-6.961,3.758-13.919,7.525-20.867,11.295c8.311-2.647,16.636-5.281,24.951-7.928c6.938-3.341,13.854-6.7,20.795-10.041
				L4824.813,1654.588z M4869.234,1630.603l-25.157,13.588c10.125-2.715,20.246-5.439,30.384-8.149
				c8.497-4.075,17.028-8.126,25.545-12.192C4889.751,1626.106,4879.493,1628.341,4869.234,1630.603z M4646.341,1746.883
				l-0.313,0.198l1.017-0.5L4646.341,1746.883z M4688.852,1720.563c-4.688,2.882-9.376,5.762-14.047,8.648l16.78-7.228l13.71-7.565
				L4688.852,1720.563z M4731.563,1694.325l-20.614,12.665l24.375-9.113c7.009-3.843,14.046-7.673,21.07-11.51L4731.563,1694.325z
				 M4774.407,1668.157c-8.318,5.044-16.64,10.09-24.924,15.159l30.233-9.685c8.332-4.547,16.643-9.107,24.985-13.644
				C4794.594,1662.703,4784.504,1665.437,4774.407,1668.157z M4817.347,1642.097l-27.396,16.624
				c11.306-3.046,22.616-6.078,33.918-9.115c9.366-5.072,18.755-10.128,28.138-15.182
				C4840.454,1636.974,4828.901,1639.536,4817.347,1642.097z M4558.845,1795.589l-1.198,0.838l2.813-1.584l0.426-0.261
				L4558.845,1795.589z M4599.99,1766.992l-13.94,9.692l16.276-8.06c4.698-2.93,9.42-5.846,14.136-8.776L4599.99,1766.992z
				 M4641.182,1738.505c-6.883,4.725-13.765,9.444-20.61,14.187c8.211-3.564,16.417-7.135,24.628-10.693
				c6.838-4.238,13.655-8.481,20.493-12.719L4641.182,1738.505z M4682.515,1710.097l-24.25,16.668
				c9.822-3.693,19.631-7.399,29.464-11.091c8.267-5.1,16.561-10.176,24.844-15.264L4682.515,1710.097z M4724.082,1681.76
				c-9.046,6.133-18.106,12.25-27.108,18.403c11.166-3.592,22.341-7.176,33.517-10.76c9.122-5.589,18.22-11.189,27.355-16.77
				L4724.082,1681.76z M4765.611,1653.57c-9.585,6.488-19.137,12.998-28.719,19.496l36.508-9.868
				c9.815-5.976,19.655-11.937,29.495-17.901C4790.47,1648.051,4778.037,1650.803,4765.611,1653.57z M4474.62,1848.573l-1.964,1.548
				l2.583-1.634l1.875-1.317L4474.62,1848.573z M4514.146,1817.797c-4.726,3.65-9.448,7.3-14.153,10.964l16.726-9.382l14.074-9.877
				C4525.236,1812.263,4519.696,1815.035,4514.146,1817.797z M4553.742,1787.109l-19.961,15.469
				c7.917-3.933,15.854-7.858,23.78-11.788c6.865-4.789,13.755-9.561,20.634-14.344
				C4570.031,1779.998,4561.892,1783.554,4553.742,1787.109z M4593.688,1756.401c-7.992,6.115-15.994,12.223-23.948,18.349
				c9.668-4.204,19.36-8.399,29.035-12.607c8.047-5.585,16.07-11.183,24.13-16.756L4593.688,1756.401z M4633.489,1725.909
				c-8.73,6.658-17.413,13.351-26.129,20.019c10.867-4.103,21.754-8.189,32.627-12.284c8.971-6.181,17.958-12.354,26.947-18.523
				L4633.489,1725.909z M4673.768,1695.42c-9.407,7.1-18.828,14.204-28.197,21.325l35.797-11.548
				c9.592-6.567,19.199-13.131,28.825-19.679C4698.046,1688.808,4685.916,1692.119,4673.768,1695.42z M4713.947,1665.1
				c-9.815,7.37-19.576,14.765-29.364,22.143l38.424-10.425c10.042-6.827,20.098-13.648,30.154-20.467L4713.947,1665.1z
				 M4393.437,1905.96l-2.624,2.278l3.884-2.764l2.078-1.633L4393.437,1905.96z M4431.264,1873.033
				c-4.674,4.057-9.314,8.113-13.978,12.17l16.396-10.419c4.743-3.722,9.507-7.438,14.26-11.159L4431.264,1873.033z
				 M4469.509,1840.022c-6.642,5.724-13.298,11.437-19.927,17.16l23.578-13.295c6.666-5.21,13.291-10.425,19.968-15.631
				L4469.509,1840.022z M4507.552,1807.252c-7.717,6.618-15.376,13.254-23.076,19.878l28.289-14.086
				c7.917-6.155,15.86-12.292,23.791-18.443L4507.552,1807.252z M4546.166,1774.385c-8.562,7.276-17.127,14.55-25.659,21.84
				l31.926-13.924c8.741-6.751,17.499-13.495,26.27-20.226L4546.166,1774.385z M4584.669,1741.716
				c-9.115,7.691-18.186,15.397-27.259,23.102l34.997-13.244l27.983-21.44C4608.479,1733.985,4596.576,1737.857,4584.669,1741.716z
				 M4623.529,1709.09c-9.555,8.011-19.109,16.018-28.64,24.043l37.38-12.099c9.812-7.471,19.669-14.912,29.529-22.356
				L4623.529,1709.09z M4662.462,1676.616c-9.929,8.232-19.834,16.471-29.711,24.728c13.285-3.622,26.576-7.23,39.87-10.842
				c10.111-7.651,20.202-15.312,30.347-22.95L4662.462,1676.616z M4315.015,1967.961l-3.283,3.199l4.193-3.327l3.187-2.802
				L4315.015,1967.961z M4351.633,1932.588l-13.944,13.461c5.347-3.815,10.726-7.624,16.076-11.442
				c4.712-4.129,9.379-8.257,14.102-12.38L4351.633,1932.588z M4388.01,1897.515c-6.436,6.167-12.834,12.352-19.246,18.529
				l23.035-14.649l19.827-17.257L4388.01,1897.515z M4424.82,1862.344c-7.542,7.204-15.094,14.404-22.615,21.614l27.482-15.551
				c7.762-6.727,15.544-13.447,23.337-20.162L4424.82,1862.344z M4461.624,1827.345c-8.301,7.85-16.582,15.708-24.845,23.577
				l31.243-15.601l25.449-21.925L4461.624,1827.345z M4498.685,1792.384c-8.809,8.303-17.619,16.608-26.414,24.919l33.87-14.811
				c9.098-7.795,18.264-15.559,27.414-23.332L4498.685,1792.384z M4535.941,1757.522c-9.294,8.645-18.581,17.291-27.819,25.956
				c12.216-4.637,24.453-9.262,36.672-13.889c9.458-8.05,18.879-16.106,28.362-24.143L4535.941,1757.522z M4573.239,1722.832
				c-9.544,8.86-19.068,17.728-28.591,26.596l38.709-12.555c9.863-8.324,19.782-16.626,29.69-24.929L4573.239,1722.832z
				 M4610.949,1688.188c-9.929,9.069-19.872,18.126-29.731,27.228l41.059-11.223c10.111-8.459,20.198-16.923,30.346-25.362
				L4610.949,1688.188z M4240.189,2034.02l-3.427,3.704l4.303-3.799l3.256-3.199L4240.189,2034.02z M4274.922,1996.637
				c-4.65,4.967-9.297,9.941-13.923,14.911l16.352-13.05l13.875-13.523L4274.922,1996.637z M4309.912,1959.207l-18.838,20.156
				l22.221-15.892c6.495-6.302,13.02-12.597,19.545-18.894L4309.912,1959.207z M4345.039,1921.865
				c-7.388,7.801-14.775,15.611-22.118,23.427l27.053-17.265c7.487-7.225,14.964-14.463,22.461-21.689L4345.039,1921.865z
				 M4380.228,1884.651l-23.955,25.33l30.137-17.073c8.277-7.948,16.605-15.882,24.923-23.816
				C4400.969,1874.276,4390.583,1879.461,4380.228,1884.651z M4415.747,1847.44c-8.6,8.957-17.209,17.904-25.758,26.881
				l33.303-16.651c8.741-8.339,17.458-16.694,26.229-25.023L4415.747,1847.44z M4451.221,1810.418
				c-8.892,9.239-17.725,18.505-26.592,27.751l35.536-15.563c9.194-8.71,18.429-17.402,27.661-26.096L4451.221,1810.418z
				 M4487.207,1773.38c-9.304,9.535-18.607,19.067-27.85,28.631l37.909-14.404c9.51-8.947,19.041-17.891,28.602-26.816
				L4487.207,1773.38z M4523.1,1736.546c-9.497,9.691-18.927,19.415-28.393,29.124l39.867-12.976
				c9.778-9.115,19.573-18.218,29.385-27.323L4523.1,1736.546z M4559.46,1699.786c-9.768,9.849-19.538,19.704-29.258,29.583
				l41.729-11.417c10.035-9.281,20.125-18.537,30.233-27.787L4559.46,1699.786z M4168.348,2104.547l-4.076,4.88l4.822-4.765
				l3.918-4.264L4168.348,2104.547z M4201.395,2065.03L4188,2081.054l15.4-13.688c4.678-5.074,9.397-10.15,14.095-15.224
				L4201.395,2065.03z M4234.822,2025.376c-6.141,7.25-12.285,14.504-18.392,21.76c7.267-5.814,14.583-11.636,21.867-17.458
				c6.261-6.753,12.487-13.509,18.752-20.258L4234.822,2025.376z M4268.149,1985.926c-7.037,8.297-14.026,16.598-21.043,24.899
				l25.988-18.613c7.322-7.85,14.672-15.703,22.021-23.548L4268.149,1985.926z M4301.975,1946.334
				c-7.772,9.075-15.554,18.144-23.278,27.223l29.457-18.844c7.968-8.496,15.922-16.995,23.914-25.483L4301.975,1946.334z
				 M4335.67,1906.989c-8.202,9.53-16.344,19.075-24.519,28.611l32.191-18.292c8.466-8.985,16.97-17.958,25.47-26.936
				L4335.67,1906.989z M4369.822,1867.606c-8.61,9.912-17.224,19.827-25.796,29.749c11.529-5.776,23.038-11.558,34.567-17.338
				c8.878-9.34,17.783-18.665,26.706-27.995L4369.822,1867.606z M4403.994,1828.39c-8.905,10.162-17.773,20.34-26.634,30.52
				l36.834-16.172c9.156-9.571,18.323-19.137,27.5-28.7L4403.994,1828.39z M4438.479,1789.24
				c-9.163,10.377-18.312,20.752-27.434,31.15l38.662-14.711c9.465-9.817,19.009-19.6,28.543-29.383L4438.479,1789.24z
				 M4473.122,1750.272c-9.403,10.517-18.79,21.036-28.131,31.581l40.76-13.269c9.637-9.904,19.233-19.825,28.904-29.718
				L4473.122,1750.272z M4507.954,1711.421c-9.558,10.623-19.085,21.257-28.605,31.898l42.357-11.628
				c9.877-10.058,19.837-20.078,29.783-30.105L4507.954,1711.421z M4099.437,2179.697c-1.394,1.861-2.782,3.726-4.179,5.583
				l4.781-5.231l4.382-5.288L4099.437,2179.697z M4131.188,2137.689c-4.365,5.778-8.751,11.553-13.103,17.334l15.05-14.865
				c4.475-5.393,8.916-10.774,13.397-16.161L4131.188,2137.689z M4162.781,2095.966c-5.897,7.739-11.735,15.472-17.605,23.212
				l21.163-18.876c6.072-7.264,12.154-14.528,18.23-21.79L4162.781,2095.966z M4194.749,2054.118
				c-6.817,8.917-13.634,17.827-20.431,26.746l25.119-20.12c7.041-8.399,14.109-16.796,21.194-25.196L4194.749,2054.118z
				 M4226.744,2012.425c-7.456,9.67-14.888,19.335-22.306,29.012l28.485-20.436l23.055-27.288L4226.744,2012.425z
				 M4258.962,1970.785c-7.875,10.168-15.753,20.336-23.604,30.514l30.961-19.822c8.191-9.647,16.451-19.278,24.7-28.916
				L4258.962,1970.785z M4291.394,1929.206c-8.288,10.56-16.564,21.134-24.8,31.712l33.613-19.095
				c8.503-9.945,16.983-19.901,25.511-29.837L4291.394,1929.206z M4323.928,1887.762c-8.511,10.816-16.994,21.638-25.48,32.454
				l35.529-17.817c8.847-10.269,17.763-20.513,26.668-30.765L4323.928,1887.762z M4356.843,1846.355
				c-8.851,11.062-17.698,22.111-26.459,33.19l37.799-16.604c9.057-10.42,18.079-20.853,27.169-31.258L4356.843,1846.355z
				 M4389.734,1805.154c-8.967,11.177-17.862,22.374-26.788,33.561l39.458-15.035c9.3-10.618,18.663-21.213,28.018-31.81
				L4389.734,1805.154z M4423.155,1763.996c-9.235,11.327-18.501,22.651-27.664,34.012l41.446-13.529
				c9.472-10.708,18.944-21.41,28.472-32.093L4423.155,1763.996z M4456.503,1723.067c-9.331,11.372-18.573,22.781-27.86,34.174
				l42.999-11.804c9.647-10.802,19.325-21.594,29.021-32.375L4456.503,1723.067z M4034.148,2258.775l-4.138,6.103l4.544-5.497
				l4.286-5.762L4034.148,2258.775z M4064.059,2214.749c-4.317,6.32-8.655,12.643-12.948,18.949l14.923-16.389l13.136-17.531
				L4064.059,2214.749z M4094.072,2170.796l-16.908,24.764l20.054-19.871c5.928-7.872,11.9-15.758,17.862-23.641L4094.072,2170.796z
				 M4124.347,2126.784c-6.584,9.516-13.174,19.031-19.707,28.551c8.122-7.256,16.292-14.53,24.436-21.794
				c6.752-8.933,13.491-17.866,20.256-26.803L4124.347,2126.784z M4154.635,2082.937c-7.078,10.231-14.133,20.458-21.201,30.693
				l27.273-21.863c7.418-9.757,14.888-19.508,22.351-29.255L4154.635,2082.937z M4185.328,2038.978
				c-7.611,10.846-15.242,21.692-22.791,32.546l30.213-21.704c7.817-10.209,15.592-20.425,23.443-30.633L4185.328,2038.978z
				 M4215.915,1995.283c-7.858,11.159-15.633,22.336-23.46,33.505l32.362-20.741c8.185-10.628,16.413-21.241,24.649-31.857
				L4215.915,1995.283z M4247.059,1951.47c-8.208,11.51-16.42,23.022-24.566,34.547l34.605-19.692
				c8.462-10.895,16.925-21.789,25.436-32.669L4247.059,1951.47z M4278.116,1907.916c-8.383,11.686-16.698,23.39-25.033,35.087
				l36.511-18.338c8.692-11.107,17.409-22.202,26.146-33.298L4278.116,1907.916z M4309.641,1864.359
				c-8.624,11.879-17.251,23.76-25.813,35.66l38.363-16.872c8.912-11.286,17.879-22.556,26.86-33.823L4309.641,1864.359z
				 M4341.223,1820.995c-8.792,11.995-17.533,24-26.27,36.018l40.2-15.329c9.067-11.379,18.137-22.767,27.245-34.136
				L4341.223,1820.995z M4373.136,1777.764c-8.957,12.089-17.886,24.177-26.778,36.284l41.728-13.628
				c9.276-11.518,18.646-22.993,28.004-34.477L4373.136,1777.764z M4405.279,1734.681c-9.132,12.156-18.233,24.319-27.29,36.509
				l43.593-12.001c9.369-11.528,18.707-23.076,28.125-34.578L4405.279,1734.681z M3972.01,2342.202l-4.334,7.104l4.743-6.402
				l4.458-6.632L3972.01,2342.202z M4000.069,2296.259c-4.059,6.617-8.067,13.221-12.116,19.837l13.947-16.981
				c4.3-6.371,8.624-12.749,12.938-19.119L4000.069,2296.259z M4028.615,2249.921c-5.433,8.797-10.88,17.605-16.279,26.399
				l19.483-21.413c5.612-8.291,11.189-16.57,16.822-24.865L4028.615,2249.921z M4057.018,2203.904
				c-6.209,10.008-12.357,20.002-18.532,30.015l23.313-23.134c6.481-9.528,13.013-19.065,19.525-28.595L4057.018,2203.904z
				 M4085.891,2157.638c-6.797,10.874-13.597,21.749-20.359,32.626l26.363-23.553c7.061-10.309,14.129-20.613,21.232-30.927
				L4085.891,2157.638z M4114.734,2111.601c-7.195,11.432-14.349,22.859-21.51,34.289l28.99-23.257
				c7.48-10.856,14.978-21.71,22.485-32.562l-27.396,19.692L4114.734,2111.601z M4143.899,2065.531
				c-7.518,11.849-15.029,23.706-22.516,35.563l31.178-22.402c7.833-11.287,15.726-22.574,23.625-33.857l-21.08,13.513
				L4143.899,2065.531z M4173.198,2019.591c-7.799,12.158-15.565,24.321-23.31,36.486l3.819-2.446l29.611-18.985
				c8.068-11.54,16.132-23.068,24.22-34.6l-17.282,9.843L4173.198,2019.591z M4202.717,1973.741
				c-7.992,12.379-15.96,24.755-23.911,37.141l10.187-5.798l24.979-14.213c8.335-11.825,16.767-23.622,25.185-35.432l-17.793,8.937
				L4202.717,1973.741z M4232.514,1927.971c-8.243,12.567-16.465,25.133-24.625,37.722l12.351-6.195l24.94-12.527
				c8.479-11.915,16.897-23.842,25.418-35.747l-24.106,10.596L4232.514,1927.971z M4262.417,1882.373
				c-8.366,12.665-16.646,25.354-24.951,38.036l8.026-3.528l30.814-13.553c8.699-12.104,17.471-24.183,26.242-36.27l-39.723,15.156
				L4262.417,1882.373z M4292.764,1836.833c-8.583,12.811-17.193,25.607-25.693,38.446l40.797-15.561
				c8.827-12.168,17.632-24.343,26.517-36.487L4292.764,1836.833z M4323.097,1791.546c-8.651,12.83-17.207,25.697-25.813,38.541
				l42.23-13.801c8.991-12.26,18.048-24.498,27.108-36.731L4323.097,1791.546z M4354.03,1746.327
				c-8.881,12.918-17.79,25.818-26.572,38.775l44.012-12.118c9.132-12.304,18.278-24.591,27.472-36.864L4354.03,1746.327z
				 M3912.893,2430.269l-4.382,7.956l4.678-7l4.599-7.575L3912.893,2430.269z M3939.554,2381.802l-11.608,21.094l13.257-17.884
				c4.097-6.736,8.167-13.459,12.278-20.198L3939.554,2381.802z M3966.25,2333.486c-5.176,9.318-10.344,18.638-15.489,27.949
				l18.755-22.883l16.131-26.419L3966.25,2333.486z M3993.145,2285.124c-5.904,10.593-11.791,21.186-17.674,31.78l22.162-24.402
				c6.216-10.14,12.484-20.294,18.741-30.444l-19.569,19.428L3993.145,2285.124z M4020.232,2236.765
				c-6.481,11.508-12.965,23.007-19.391,34.505l25.415-25.215c6.708-10.885,13.408-21.772,20.136-32.657l-8.895,7.95
				L4020.232,2236.765z M4047.409,2188.513c-6.793,12.032-13.559,24.073-20.332,36.106l8.583-7.669l19.088-17.048
				c7.154-11.53,14.387-23.062,21.592-34.594L4047.409,2188.513z M4074.936,2140.198c-7.185,12.54-14.387,25.079-21.5,37.612
				l22.722-18.226l7.508-6.025c7.415-11.875,14.795-23.747,22.248-35.62L4074.936,2140.198z M4102.435,2092.107
				c-7.346,12.785-14.624,25.576-21.939,38.368l32.071-23.044c7.714-12.242,15.479-24.48,23.248-36.712L4102.435,2092.107z
				 M4130.439,2043.929c-7.645,13.086-15.304,26.17-22.863,39.271l34.224-21.936c7.903-12.449,15.798-24.887,23.749-37.32
				L4130.439,2043.929z M4158.368,1996.011c-7.759,13.206-15.414,26.433-23.124,39.655l35.914-20.431
				c8.102-12.64,16.245-25.27,24.395-37.896L4158.368,1996.011z M4186.843,1948.051c-7.981,13.4-15.967,26.79-23.869,40.203
				l37.758-18.963c8.263-12.777,16.568-25.542,24.903-38.29L4186.843,1948.051z M4215.324,1900.337
				c-8.102,13.465-16.121,26.943-24.154,40.434l39.424-17.336c8.408-12.866,16.839-25.729,25.298-38.575L4215.324,1900.337z
				 M4244.249,1852.691c-8.277,13.567-16.533,27.135-24.728,40.724l41.021-15.647c8.576-12.974,17.227-25.918,25.889-38.86
				l-20.291,6.629L4244.249,1852.691z M4273.301,1805.27c-8.397,13.597-16.739,27.213-25.058,40.847l17.141-5.602l25.566-8.355
				c8.682-12.987,17.34-25.977,26.074-38.943L4273.301,1805.27z M4302.72,1757.989c-8.538,13.638-17.031,27.29-25.48,40.961
				l44.087-12.154c8.84-13.074,17.818-26.092,26.765-39.122L4302.72,1757.989z M3857.241,2522.338l-4.039,8.227l4.077-6.76
				l4.585-8.395L3857.241,2522.338z M3882.22,2471.724c-3.709,7.497-7.436,15.005-11.124,22.49l12.841-19.24l11.591-21.241
				L3882.22,2471.724z M3907.161,2421.333c-4.832,9.747-9.634,19.476-14.455,29.217l17.608-23.806
				c5.138-9.378,10.321-18.776,15.493-28.166l-9.671,11.805L3907.161,2421.333z M3932.486,2370.659
				c-5.612,11.199-11.237,22.404-16.808,33.587l21.338-26.038c5.849-10.619,11.663-21.215,17.543-31.842L3932.486,2370.659z
				 M3957.715,2320.277c-6.051,12.031-12.034,24.035-18.065,36.06l14.486-15.939l9.64-10.617
				c6.392-11.534,12.824-23.074,19.25-34.616L3957.715,2320.277z M3983.398,2269.667c-6.464,12.708-12.924,25.412-19.336,38.11
				l26.665-26.461c6.756-12.118,13.518-24.225,20.322-36.35L3983.398,2269.667z M4009.06,2219.282
				c-6.721,13.114-13.381,26.231-20.057,39.347l28.894-25.809c7.041-12.539,14.112-25.089,21.19-37.63L4009.06,2219.282z
				 M4035.079,2168.827c-6.968,13.485-13.933,26.965-20.854,40.448l30.889-24.785c7.302-12.9,14.658-25.792,22.025-38.689
				L4035.079,2168.827z M4061.222,2118.521c-7.181,13.734-14.318,27.466-21.445,41.208l32.926-23.653
				c7.477-13.105,14.967-26.214,22.485-39.315L4061.222,2118.521z M4087.636,2068.269c-7.346,13.925-14.672,27.853-21.963,41.786
				c11.505-7.367,23.059-14.777,34.588-22.167c7.693-13.347,15.479-26.682,23.248-40.027L4087.636,2068.269z M4114.294,2018.126
				c-7.539,14.089-15.056,28.172-22.523,42.273l36.549-20.792c7.813-13.431,15.592-26.866,23.457-40.284L4114.294,2018.126z
				 M4141.134,1968.152c-7.652,14.169-15.249,28.346-22.839,42.528l38.022-19.087c7.999-13.599,16.111-27.173,24.196-40.756
				L4141.134,1968.152z M4168.366,1918.25c-7.848,14.277-15.695,28.553-23.454,42.86l39.935-17.558
				c8.102-13.624,16.166-27.26,24.33-40.871L4168.366,1918.25z M4195.683,1868.563c-7.917,14.305-15.754,28.633-23.619,42.953
				l41.313-15.758c8.27-13.732,16.623-27.434,24.979-41.139L4195.683,1868.563z M4223.533,1818.992
				c-8.129,14.368-16.3,28.73-24.319,43.147l43.133-14.097c8.377-13.738,16.743-27.472,25.188-41.184l-17.743,4.889
				L4223.533,1818.992z M4251.352,1769.68c-8.174,14.341-16.214,28.741-24.326,43.109l22.121-6.103l22.324-6.149
				c8.511-13.779,17.09-27.534,25.683-41.281L4251.352,1769.68z M3804.946,2618.56l-3.857,8.764l4.049-7.474l4.156-8.524
				L3804.946,2618.56z M3828.107,2565.995c-3.5,7.873-6.961,15.735-10.43,23.601l12.13-20.161l11.093-22.611l-2.552,3.826
				L3828.107,2565.995z M3851.51,2513.243c-4.558,10.263-9.115,20.527-13.662,30.789l16.684-25.001
				c4.846-9.853,9.706-19.709,14.579-29.582L3851.51,2513.243z M3875.004,2460.567c-5.265,11.731-10.506,23.455-15.719,35.165
				l15.098-20.412l5.207-7.037l16.616-33.587L3875.004,2460.567z M3898.654,2407.9c-5.674,12.627-11.341,25.246-17.007,37.865
				l22.911-27.954c6.038-12.144,12.134-24.309,18.223-36.468L3898.654,2407.9z M3922.53,2355.2
				c-6.069,13.327-12.141,26.658-18.158,39.977l25.576-28.158c6.36-12.701,12.694-25.402,19.075-38.105
				C3940.197,2337.668,3931.336,2346.472,3922.53,2355.2z M3946.519,2302.575c-6.292,13.766-12.556,27.524-18.814,41.287
				l27.53-27.329c6.666-13.225,13.415-26.465,20.146-39.706L3946.519,2302.575z M3970.859,2249.875
				c-6.587,14.185-13.195,28.363-19.703,42.544l29.828-26.636c6.855-13.491,13.655-26.969,20.558-40.468L3970.859,2249.875z
				 M3995.206,2197.42c-6.701,14.375-13.346,28.754-20.012,43.131l31.507-25.239c7.078-13.82,14.229-27.64,21.383-41.463
				L3995.206,2197.42z M4020.033,2144.857c-6.962,14.65-13.944,29.301-20.819,43.959l33.558-24.054
				c7.236-13.991,14.462-27.979,21.754-41.96L4020.033,2144.857z M4044.802,2092.592c-7.041,14.731-13.968,29.473-20.95,44.208
				c11.705-7.487,23.406-14.959,35.127-22.462c7.398-14.161,14.847-28.318,22.32-42.472L4044.802,2092.592z M4070.169,2040.242
				c-7.254,14.905-14.517,29.81-21.678,44.735l36.948-20.976c7.532-14.281,15.108-28.541,22.719-42.798L4070.169,2040.242z
				 M4095.494,1988.181c-7.336,14.943-14.576,29.911-21.846,44.871l38.51-19.3c7.669-14.347,15.369-28.693,23.1-43.025
				L4095.494,1988.181z M4121.348,1936.152c-7.507,15.04-15.015,30.083-22.43,45.147l40.118-17.614
				c7.817-14.434,15.699-28.84,23.591-43.25L4121.348,1936.152z M4147.299,1884.369c-7.614,15.057-15.149,30.135-22.688,45.223
				l41.718-15.888c7.919-14.452,15.843-28.898,23.824-43.333L4147.299,1884.369z M4173.682,1832.727
				c-7.751,15.092-15.489,30.191-23.151,45.317l43.157-14.095c8.064-14.514,16.245-28.986,24.412-43.462L4173.682,1832.727z
				 M4200.299,1781.3c-7.882,15.09-15.712,30.2-23.502,45.331l44.806-12.35c8.157-14.472,16.272-28.958,24.48-43.406l-43.349,9.869
				L4200.299,1781.3z M3755.947,2718.973l-3.706,9.434l3.836-7.885l4.053-9.272L3755.947,2718.973z M3777.367,2664.382l-9.606,24.49
				l11.148-20.591c3.496-7.972,7.017-15.978,10.537-23.973L3777.367,2664.382z M3799.104,2609.441
				c-4.283,10.781-8.576,21.569-12.814,32.321l12.12-20.142l3.768-6.265c4.523-10.278,9.022-20.533,13.549-30.821L3799.104,2609.441
				z M3820.768,2554.804c-4.849,12.182-9.64,24.333-14.472,36.503l19.068-28.571c5.207-11.764,10.448-23.561,15.688-35.353
				L3820.768,2554.804z M3842.862,2499.759c-5.337,13.261-10.691,26.528-15.977,39.766l21.939-29.65
				c5.625-12.657,11.227-25.296,16.884-37.963L3842.862,2499.759z M3864.89,2445.013c-5.629,13.9-11.182,27.774-16.77,41.662
				c8.057-9.815,16.162-19.721,24.24-29.566c5.962-13.343,11.976-26.703,17.986-40.06
				C3881.846,2426.395,3873.37,2435.691,3864.89,2445.013z M3887.337,2390.03c-5.921,14.452-11.839,28.9-17.691,43.336
				l26.414-29.042c6.23-13.828,12.484-27.664,18.776-41.51C3905.66,2371.91,3896.504,2380.959,3887.337,2390.03z M3909.785,2335.315
				c-6.1,14.777-12.144,29.542-18.199,44.31c9.472-9.379,18.924-18.713,28.399-28.113c6.457-14.195,12.931-28.391,19.422-42.596
				L3909.785,2335.315z M3932.6,2280.502c-6.302,15.076-12.591,30.155-18.831,45.223l30.278-26.968
				c6.635-14.488,13.339-28.982,20.057-43.47C3953.601,2263.697,3943.092,2272.116,3932.6,2280.502z M3955.535,2225.854
				c-6.467,15.292-12.883,30.572-19.281,45.861l32.177-25.751c6.786-14.66,13.573-29.323,20.407-43.98
				C3977.735,2209.946,3966.621,2217.922,3955.535,2225.854z M3978.765,2171.25c-6.604,15.453-13.178,30.908-19.727,46.366
				c11.251-8.052,22.523-16.14,33.778-24.217c6.969-14.875,14.03-29.742,21.077-44.615
				C4002.188,2156.272,3990.463,2163.787,3978.765,2171.25z M4002.256,2116.737c-6.769,15.597-13.514,31.192-20.205,46.799
				c11.869-7.579,23.773-15.207,35.659-22.808c7.068-14.933,14.102-29.873,21.215-44.806
				C4026.706,2102.862,4014.466,2109.82,4002.256,2116.737z M4025.957,2062.384c-6.872,15.67-13.696,31.351-20.503,47.033
				c12.34-6.998,24.721-14.039,37.082-21.053c7.233-15.1,14.593-30.183,21.925-45.263
				C4051.626,2049.527,4038.785,2055.971,4025.957,2062.384z M4050.043,2008.128c-7.047,15.76-14.105,31.521-21.053,47.303
				c12.975-6.488,25.974-13.016,38.957-19.518c7.326-15.096,14.583-30.2,21.977-45.287
				C4076.632,1996.462,4063.327,2002.309,4050.043,2008.128z M4074.262,1954.077c-7.123,15.77-14.164,31.563-21.221,47.351
				l40.299-17.681c7.47-15.202,15.063-30.372,22.636-45.55L4074.262,1954.077z M4099.007,1900.122
				c-7.322,15.836-14.665,31.67-21.874,47.544l42.099-16.03c7.58-15.192,15.125-30.378,22.773-45.542L4099.007,1900.122z
				 M4123.773,1846.474c-7.363,15.792-14.61,31.627-21.905,47.444l43.374-14.149c7.71-15.23,15.506-30.432,23.302-45.632
				L4123.773,1846.474z M4149.208,1792.924c-7.573,15.843-15.204,31.655-22.657,47.547l45.111-12.425
				c7.82-15.216,15.654-30.416,23.563-45.591L4149.208,1792.924z M4121.647,1841.819c7.477-15.97,15.115-31.874,22.719-47.792
				l-46.323,10.547c-7.175,16.52-14.298,33.056-21.366,49.614L4121.647,1841.819z M4096.844,1895.558
				c7.333-15.918,14.634-31.845,22.035-47.74l-44.757,12.314c-7.047,16.536-14.019,33.095-20.96,49.669L4096.844,1895.558z
				 M4072.044,1949.607c7.236-15.975,14.59-31.905,21.939-47.841l-43.36,14.129c-6.927,16.552-13.83,33.107-20.658,49.689
				C4043.985,1960.26,4058.004,1954.942,4072.044,1949.607z M4047.79,2003.734c7.106-15.912,14.205-31.822,21.379-47.718
				c-13.951,5.307-27.887,10.589-41.831,15.876c-6.783,16.518-13.477,33.058-20.174,49.601
				C4020.709,2015.577,4034.245,2009.673,4047.79,2003.734z M4023.643,2058.097c6.992-15.904,14.061-31.788,21.149-47.672
				c-13.432,5.884-26.837,11.735-40.255,17.597c-6.683,16.523-13.381,33.037-19.968,49.575
				C3997.589,2071.104,4010.609,2064.615,4023.643,2058.097z M3999.897,2112.557c6.872-15.84,13.775-31.672,20.72-47.501
				c-12.941,6.468-25.861,12.906-38.792,19.354c-6.525,16.435-12.941,32.881-19.391,49.326
				C3974.918,2126.684,3987.399,2119.635,3999.897,2112.557z M3976.347,2167.178c6.752-15.776,13.535-31.537,20.356-47.3
				c-12.354,7.001-24.693,13.963-37.04,20.938c-6.44,16.413-12.903,32.823-19.257,49.244
				C3952.382,2182.439,3964.347,2174.835,3976.347,2167.178z M3953.069,2221.894c6.625-15.674,13.308-31.347,20.006-47.02
				c-11.876,7.579-23.729,15.114-35.591,22.659c-6.254,16.249-12.385,32.508-18.587,48.763
				C3930.285,2238.172,3941.67,2230.056,3953.069,2221.894z M3930.075,2276.659c6.477-15.511,12.948-31.014,19.483-46.523
				c-11.23,8.036-22.437,16.013-33.647,24.016c-6.189,16.197-12.415,32.394-18.508,48.591
				C3908.291,2294.059,3919.185,2285.369,3930.075,2276.659z M3907.226,2331.561c6.347-15.364,12.766-30.737,19.191-46.113
				c-10.722,8.569-21.434,17.109-32.132,25.637c-5.976,15.956-11.863,31.894-17.794,47.841
				C3886.722,2349.829,3896.985,2340.682,3907.226,2331.561z M3884.713,2386.426c6.175-15.093,12.306-30.179,18.522-45.275
				c-10.028,8.925-20.071,17.863-30.082,26.76c-5.883,15.791-11.783,31.584-17.584,47.357L3884.713,2386.426z M3862.221,2441.514
				c6.031-14.875,12.144-29.782,18.24-44.678c-9.472,9.374-18.958,18.776-28.423,28.13c-5.629,15.403-11.217,30.789-16.815,46.186
				L3862.221,2441.514z M3840.142,2496.382c5.801-14.43,11.571-28.859,17.399-43.302l-26.218,28.782
				c-5.488,15.076-10.97,30.146-16.399,45.195C3823.323,2516.849,3831.72,2506.644,3840.142,2496.382z M3818,2551.537
				c5.584-14.003,11.241-28.04,16.891-42.077c-8.081,9.839-16.135,19.637-24.196,29.432c-5.203,14.506-10.389,29.004-15.561,43.494
				C3802.748,2572.124,3810.368,2561.849,3818,2551.537z M3796.287,2606.298l15.733-39.674c-7.26,9.805-14.49,19.528-21.723,29.273
				c-4.949,13.85-9.877,27.684-14.771,41.505L3796.287,2606.298z M3774.52,2661.316c4.836-12.28,9.706-24.574,14.583-36.886
				l-19.058,28.497c-4.499,12.747-8.995,25.49-13.473,38.224L3774.52,2661.316z M3753.041,2716.043
				c4.221-10.758,8.448-21.535,12.68-32.303l-15.788,26.245c-3.932,11.185-7.851,22.346-11.753,33.507L3753.041,2716.043z
				 M3731.549,2770.955c3.235-8.283,6.436-16.52,9.685-24.821l-11.172,20.627l-8.933,25.617l6.422-13.214L3731.549,2770.955z
				 M3710.221,2825.66l3.908-10.026l-3.929,8.087l-3.482,9.971L3710.221,2825.66z M224.01,2916h-27.386
				C131.689,2903.502,66.14,2889.332,0,2873.557v-5.329C75.434,2886.232,150.136,2902.25,224.01,2916z M0,2337.846
				c1392.221,67.374,2739.633-229.474,4095.868-537.979C4326.04,1269.665,4610.097,760.944,5000,351.018v6.763
				c-387.471,408.064-670.244,913.79-899.478,1441.027l46.619-10.613C4373.407,1313.254,4644.359,856.562,5000,478.186v6.697
				c-353.237,376.436-622.794,830.194-848.01,1302.207l46.348-10.545c220.61-422.478,477.724-829.703,801.662-1175.748v6.576
				c-321.547,344.045-577.147,748.419-796.59,1168.013l46.045-10.479c213.25-372.891,455.943-733.15,750.544-1046.384v6.634
				c-292.187,311.128-533.266,668.52-745.197,1038.536l46.117-10.495c204.266-326.257,431.878-642.205,699.08-922.678v6.399
				c-264.818,278.336-490.683,591.551-693.512,915.013l45.832-10.416c193.87-282.87,405.945-557.447,647.68-805.745v6.43
				c-239.29,246.072-449.494,517.891-641.752,797.964l45.427-10.319c182.241-242.813,378.394-479.084,596.325-696.276v6.323
				c-215.417,214.914-409.541,448.468-589.989,688.515l44.967-10.192c169.509-206.104,349.425-407.135,545.022-594.576v6.292
				c-192.963,185.092-370.673,383.395-538.177,586.728l44.689-10.116c155.765-172.639,319.137-341.414,493.488-500.764v6.053
				c-171.642,156.992-332.62,323.131-486.197,493.065l44.308-10.008c141.206-142.442,287.818-282.011,441.89-415.225v5.993
				c-151.176,130.795-295.161,267.702-433.912,407.426l43.607-9.813c125.999-115.453,255.696-228.847,390.305-338.081v5.926
				c-131.477,106.75-258.275,217.459-381.516,330.179l42.776-9.609c110.266-91.543,222.956-181.658,338.74-269.159v5.832
				c-112.343,84.941-221.771,172.344-328.901,261.116c13.91-3.12,27.829-6.221,41.749-9.334
				c94.096-70.561,189.707-140.173,287.152-208.229v5.74c-93.629,65.417-185.562,132.273-276.086,200.021
				c13.556-3.026,27.104-6.057,40.664-9.075c77.556-52.332,155.984-104.081,235.422-154.958v5.649
				c-75.142,48.139-149.383,97.052-222.832,146.503c13.068-2.906,26.143-5.786,39.214-8.686
				c60.741-36.706,121.932-73.084,183.618-109.027v5.513c-56.792,33.097-113.164,66.562-169.148,100.313
				c12.491-2.765,24.979-5.545,37.479-8.299c43.693-23.509,87.582-46.861,131.669-70.033v5.427
				c-38.328,20.149-76.501,40.437-114.531,60.844c11.561-2.547,23.131-5.078,34.698-7.615
				c26.551-12.635,53.165-25.213,79.833-37.738v5.359c-19.638,9.225-39.242,18.479-58.814,27.764l31.002-6.786
				c9.266-3.864,18.536-7.721,27.812-11.574v5.345l-0.982,0.409l0.982-0.216v12.462c-23.941,7.479-47.866,14.983-71.772,22.514
				c-32.122,11.774-64.21,23.593-96.253,35.456c-30.831,13.092-61.6,26.233-92.317,39.416c-30.542,14.89-61.03,29.823-91.441,44.798
				c-28.883,16.019-57.691,32.093-86.441,48.176c-28.444,17.827-56.812,35.683-85.102,53.564
				c-26.864,18.926-53.632,37.877-80.338,56.845c-26.277,20.721-52.478,41.463-78.576,62.204
				c-25.095,22.069-50.094,44.148-75.001,66.219c-23.955,23.455-47.811,46.913-71.58,70.353
				c-23.089,25.117-46.083,50.219-68.983,75.296c-21.847,26.381-43.597,52.742-65.247,79.047
				c-20.806,27.877-41.491,55.704-62.101,83.479c-19.761,29.391-39.434,58.726-59.003,87.99
				c-18.738,30.946-37.38,61.821-55.919,92.594c-17.433,32.025-34.75,63.949-51.997,95.769
				c-16.441,33.647-32.761,67.177-49.013,100.581c-15.307,35.025-30.522,69.916-45.65,104.656
				c-11.426,29.359-22.811,58.632-34.135,87.785h-8.263l16.64-38.2l8.943-25.817c-10.427,21.431-20.813,42.738-31.191,64.017h-4.327
				c15.369-31.501,30.769-63.115,46.245-94.94c3.905-11.241,7.858-22.542,11.797-33.825c-23.45,43.264-46.773,86.156-70.042,128.764
				h-4.485c27.427-50.211,54.954-100.923,82.642-152.038c4.448-12.733,8.847-25.414,13.315-38.165
				c-38.668,64.174-77.068,127.591-115.362,190.202h-4.705c42.031-68.682,84.188-138.414,126.678-208.966
				c4.87-13.848,9.778-27.736,14.686-41.621c-56.826,84.953-113.171,168.616-169.403,250.587h-4.956
				c59.676-86.934,119.473-175.836,179.826-266.115c5.145-14.549,10.283-29.085,15.465-43.657
				c-78.343,105.602-155.919,209.214-233.475,309.772h-5.268c80.898-104.799,161.809-213.011,243.579-323.282
				c5.368-15.076,10.777-30.169,16.193-45.265c-104.029,126.458-206.91,250.055-310.039,368.547h-5.756
				c106.446-122.162,212.615-249.747,320.03-380.389c5.567-15.477,11.155-30.956,16.784-46.455
				c-134.732,147.667-267.837,291.229-401.724,426.844h-6.202c137.26-138.827,273.668-286.067,411.825-437.554
				c5.729-15.771,11.464-31.549,17.237-47.335c-171.529,169.358-340.808,333.259-511.852,484.89h-6.869
				c174.537-154.429,347.203-321.663,522.245-494.559c5.894-16.07,11.859-32.147,17.832-48.229
				c-216.066,191.901-429.107,376.573-645.561,542.788h-7.611c220.174-168.648,436.748-356.512,656.506-551.769
				c6.017-16.199,12.021-32.403,18.072-48.606c-270.419,215.604-536.841,421.784-809.362,600.375h-8.761
				c276.594-180.655,546.825-389.852,821.221-608.698c6.165-16.396,12.436-32.791,18.69-49.194
				c-338.019,241.245-670.801,470.278-1014.026,657.892h-10.046c347.787-189.249,684.696-421.323,1027.06-665.75
				c6.261-16.44,12.474-32.877,18.786-49.309c-424.065,269.942-841.227,524.25-1276.048,715.059h-12.519
				c440.296-191.898,862.287-449.246,1291.41-722.487c6.405-16.59,12.948-33.164,19.456-49.74
				C3414.806,2448.748,2884.38,2733.201,2323.601,2916h-16.633c567.878-182.93,1104.307-470.693,1650.242-779.308
				c6.491-16.574,12.914-33.154,19.477-49.719c-714.984,356.662-1416.822,684.71-2176.396,829.027h-27.489
				c771.137-141.736,1482.041-474.307,2206.625-835.84c6.635-16.668,13.387-33.312,20.119-49.958
				C2732.417,2584.072,1498.286,3068.625,0,2776.753v-5.323c1499.341,292.198,2734.104-193.374,4002.181-747.761
				c6.728-16.64,13.425-33.284,20.229-49.908C2731.181,2463.744,1466.532,2900.288,0,2675.086v-5.295
				c1467.517,225.445,2732.871-211.922,4025.037-702.343c6.859-16.683,13.827-33.338,20.792-49.989
				C2731.861,2345.22,1438.256,2734.224,0,2568.518v-5.227c1439.159,165.883,2733.499-223.822,4048.364-651.933
				c6.965-16.654,13.933-33.296,20.998-49.92C2734.08,2228.62,1413.223,2570.902,0,2457.745v-5.233
				c1414.091,113.283,2735.742-229.554,4071.92-597.01c7.092-16.65,14.267-33.264,21.465-49.868
				C2738.016,2113.929,1391.411,2410.3,0,2342.976V2337.846z"/>
		</defs>
		<clipPath id="SVGID_00000126299941717916075300000003748251896382275468_">
			<use xlink:href="#SVGID_1_"  style="overflow:visible;"/>
		</clipPath>
		
			<linearGradient id="SVGID_00000052100417830884483120000010957152177491202732_" gradientUnits="userSpaceOnUse" x1="464.9371" y1="1998.3757" x2="4443.9233" y2="1434.1895">
			<stop  offset="0" style="stop-color:#CC33FF"/>
			<stop  offset="1" style="stop-color:#FF6699"/>
		</linearGradient>
		
			<rect y="351.018" style="clip-path:url(#SVGID_00000126299941717916075300000003748251896382275468_);fill:url(#SVGID_00000052100417830884483120000010957152177491202732_);" width="5000" height="2717.606"/>
	</g>
</g>
</svg>
